# xmcd CD database file
#
# Track frame offsets:
#	150
#	26902
#	39705
#	69053
#	108744
#	130333
#	148450
#	178420
#	201003
#	221912
#
# Disc length: 3516 seconds
#
# Revision: 1
# Processed by: cddbd v1.5.2PL0 Copyright (c) Steve Scherf et al.
# Submitted via: CDex 1.70beta2
#
DISCID=a70dba0a
DTITLE=Eric Löhrer Quartet - Sélène Song
DYEAR=2008
DGENRE=Jazz
TTITLE0=Dolce Vita
TTITLE1=582 Blues
TTITLE2=Bonne Fortune
TTITLE3=Sélène Song
TTITLE4=Tétradrome
TTITLE5=Boréale
TTITLE6=Moons
TTITLE7=My Love
TTITLE8=Aye Aye
TTITLE9=India
EXTD=YEAR: 2008
EXTT0=
EXTT1=
EXTT2=
EXTT3=
EXTT4=
EXTT5=
EXTT6=
EXTT7=
EXTT8=
EXTT9=
PLAYORDER=
